<svg width="1200" height="1480" viewBox="0 0 1200 1480" fill="none" xmlns="http://www.w3.org/2000/svg">
  <defs>
    <linearGradient id="bg" x1="160" y1="80" x2="1010" y2="1410" gradientUnits="userSpaceOnUse">
      <stop stop-color="#121713"/>
      <stop offset="1" stop-color="#080A09"/>
    </linearGradient>
    <linearGradient id="panel" x1="287" y1="278" x2="912" y2="1186" gradientUnits="userSpaceOnUse">
      <stop stop-color="white" stop-opacity="0.14"/>
      <stop offset="1" stop-color="white" stop-opacity="0.04"/>
    </linearGradient>
    <linearGradient id="floor" x1="220" y1="1242" x2="1014" y2="1242" gradientUnits="userSpaceOnUse">
      <stop stop-color="#D6FF63" stop-opacity="0"/>
      <stop offset="0.5" stop-color="#D6FF63" stop-opacity="0.4"/>
      <stop offset="1" stop-color="#D6FF63" stop-opacity="0"/>
    </linearGradient>
    <filter id="blur" x="660" y="-72" width="580" height="580" filterUnits="userSpaceOnUse" color-interpolation-filters="sRGB">
      <feGaussianBlur stdDeviation="70"/>
    </filter>
    <filter id="grain" x="0" y="0" width="1200" height="1480" filterUnits="userSpaceOnUse" color-interpolation-filters="sRGB">
      <feTurbulence type="fractalNoise" baseFrequency="0.85" numOctaves="2" stitchTiles="stitch"/>
      <feColorMatrix type="saturate" values="0"/>
      <feComponentTransfer>
        <feFuncA type="table" tableValues="0 0.07"/>
      </feComponentTransfer>
    </filter>
  </defs>
  <rect width="1200" height="1480" fill="url(#bg)"/>
  <g filter="url(#blur)">
    <circle cx="950" cy="218" r="150" fill="#D6FF63" fill-opacity="0.42"/>
  </g>
  <path d="M125 1174L599 866L1078 1174" stroke="url(#floor)" stroke-width="2"/>
  <path d="M213 1248H996" stroke="#D6FF63" stroke-opacity="0.28" stroke-width="2"/>
  <path d="M264 1279L600 942L941 1279" stroke="white" stroke-opacity="0.08" stroke-width="2"/>
  <path d="M336 1287L601 1028L870 1287" stroke="white" stroke-opacity="0.08" stroke-width="2"/>
  <rect x="286" y="265" width="627" height="920" rx="38" fill="url(#panel)" stroke="white" stroke-opacity="0.08" stroke-width="2"/>
  <rect x="345" y="336" width="510" height="778" rx="22" stroke="white" stroke-opacity="0.1" stroke-width="2"/>
  <path d="M355 862H848" stroke="#D6FF63" stroke-opacity="0.16" stroke-width="2"/>
  <path d="M355 931H848" stroke="white" stroke-opacity="0.08" stroke-width="2"/>
  <path d="M355 1000H848" stroke="white" stroke-opacity="0.06" stroke-width="2"/>
  <rect x="436" y="544" width="330" height="142" rx="26" fill="#0B0E0C" stroke="white" stroke-opacity="0.12" stroke-width="2"/>
  <rect x="480" y="452" width="242" height="68" rx="18" fill="#D6FF63" fill-opacity="0.88"/>
  <circle cx="604" cy="980" r="116" stroke="white" stroke-opacity="0.08" stroke-width="2"/>
  <circle cx="604" cy="980" r="72" stroke="#D6FF63" stroke-opacity="0.18" stroke-width="2"/>
  <path d="M256 342V1183" stroke="white" stroke-opacity="0.08" stroke-width="2"/>
  <path d="M944 342V1183" stroke="white" stroke-opacity="0.08" stroke-width="2"/>
  <path d="M196 220L1079 220" stroke="white" stroke-opacity="0.06" stroke-width="2"/>
  <rect width="1200" height="1480" fill="black" fill-opacity="0.02"/>
  <rect width="1200" height="1480" filter="url(#grain)"/>
</svg>
