<svg width="960" height="860" viewBox="0 0 960 860" fill="none" xmlns="http://www.w3.org/2000/svg">
  <defs>
    <linearGradient id="bg" x1="126" y1="72" x2="820" y2="782" gradientUnits="userSpaceOnUse">
      <stop stop-color="#131814"/>
      <stop offset="1" stop-color="#090B09"/>
    </linearGradient>
    <filter id="glow" x="140" y="84" width="700" height="700" filterUnits="userSpaceOnUse" color-interpolation-filters="sRGB">
      <feGaussianBlur stdDeviation="72"/>
    </filter>
  </defs>
  <rect width="960" height="860" fill="url(#bg)"/>
  <g filter="url(#glow)">
    <circle cx="480" cy="432" r="170" fill="#D6FF63" fill-opacity="0.22"/>
  </g>
  <path d="M166 676C258 642 364 626 480 626C596 626 702 642 794 676" stroke="white" stroke-opacity="0.1" stroke-width="2"/>
  <path d="M204 508C292 554 384 578 480 578C576 578 668 554 756 508" stroke="#D6FF63" stroke-opacity="0.22" stroke-width="2"/>
  <path d="M188 360C264 296 361 264 480 264C599 264 696 296 772 360" stroke="white" stroke-opacity="0.1" stroke-width="2"/>
  <path d="M248 456C318 408 396 384 480 384C564 384 642 408 712 456" stroke="white" stroke-opacity="0.18" stroke-width="10" stroke-linecap="round"/>
  <path d="M248 456C318 504 396 528 480 528C564 528 642 504 712 456" stroke="white" stroke-opacity="0.12" stroke-width="10" stroke-linecap="round"/>
  <circle cx="480" cy="456" r="110" stroke="#D6FF63" stroke-opacity="0.34" stroke-width="2"/>
  <circle cx="480" cy="456" r="54" fill="white" fill-opacity="0.08"/>
  <path d="M284 712H676" stroke="#D6FF63" stroke-opacity="0.28" stroke-width="2"/>
</svg>
