<svg width="960" height="860" viewBox="0 0 960 860" fill="none" xmlns="http://www.w3.org/2000/svg">
  <defs>
    <linearGradient id="bg" x1="98" y1="58" x2="802" y2="782" gradientUnits="userSpaceOnUse">
      <stop stop-color="#121613"/>
      <stop offset="1" stop-color="#090B09"/>
    </linearGradient>
    <filter id="glow" x="112" y="118" width="736" height="736" filterUnits="userSpaceOnUse" color-interpolation-filters="sRGB">
      <feGaussianBlur stdDeviation="64"/>
    </filter>
  </defs>
  <rect width="960" height="860" fill="url(#bg)"/>
  <g filter="url(#glow)">
    <circle cx="480" cy="486" r="204" fill="#D6FF63" fill-opacity="0.2"/>
  </g>
  <circle cx="480" cy="430" r="252" stroke="white" stroke-opacity="0.09" stroke-width="2"/>
  <circle cx="480" cy="430" r="184" stroke="#D6FF63" stroke-opacity="0.18" stroke-width="2"/>
  <circle cx="480" cy="430" r="104" stroke="white" stroke-opacity="0.14" stroke-width="2"/>
  <path d="M242 676H720" stroke="#D6FF63" stroke-opacity="0.26" stroke-width="2"/>
  <g opacity="0.88">
    <path d="M266 516C290 466 334 438 380 438C427 438 457 465 480 516" stroke="white" stroke-opacity="0.22" stroke-width="12" stroke-linecap="round"/>
    <path d="M480 516C503 465 533 438 580 438C626 438 670 466 694 516" stroke="white" stroke-opacity="0.22" stroke-width="12" stroke-linecap="round"/>
    <circle cx="318" cy="564" r="54" stroke="#D6FF63" stroke-opacity="0.52" stroke-width="10"/>
    <circle cx="641" cy="564" r="54" stroke="#D6FF63" stroke-opacity="0.52" stroke-width="10"/>
    <path d="M394 464L318 564L474 564L430 512" stroke="white" stroke-opacity="0.18" stroke-width="10" stroke-linecap="round" stroke-linejoin="round"/>
    <path d="M566 464L641 564L486 564L530 512" stroke="white" stroke-opacity="0.18" stroke-width="10" stroke-linecap="round" stroke-linejoin="round"/>
    <path d="M444 408H516" stroke="#D6FF63" stroke-opacity="0.42" stroke-width="10" stroke-linecap="round"/>
  </g>
</svg>
