<svg width="960" height="860" viewBox="0 0 960 860" fill="none" xmlns="http://www.w3.org/2000/svg">
  <defs>
    <linearGradient id="bg" x1="90" y1="40" x2="801" y2="790" gradientUnits="userSpaceOnUse">
      <stop stop-color="#141914"/>
      <stop offset="1" stop-color="#090B09"/>
    </linearGradient>
    <filter id="glow" x="450" y="58" width="380" height="380" filterUnits="userSpaceOnUse" color-interpolation-filters="sRGB">
      <feGaussianBlur stdDeviation="56"/>
    </filter>
  </defs>
  <rect width="960" height="860" fill="url(#bg)"/>
  <g filter="url(#glow)">
    <circle cx="640" cy="248" r="120" fill="#D6FF63" fill-opacity="0.38"/>
  </g>
  <path d="M126 720H835" stroke="#D6FF63" stroke-opacity="0.26" stroke-width="2"/>
  <rect x="170" y="198" width="620" height="474" rx="28" stroke="white" stroke-opacity="0.1" stroke-width="2"/>
  <path d="M280 264V672" stroke="white" stroke-opacity="0.22" stroke-width="16" stroke-linecap="round"/>
  <path d="M680 264V672" stroke="white" stroke-opacity="0.22" stroke-width="16" stroke-linecap="round"/>
  <path d="M280 284H680" stroke="white" stroke-opacity="0.18" stroke-width="14" stroke-linecap="round"/>
  <path d="M280 388H680" stroke="#D6FF63" stroke-opacity="0.24" stroke-width="10" stroke-linecap="round"/>
  <path d="M210 508H748" stroke="white" stroke-opacity="0.12" stroke-width="18" stroke-linecap="round"/>
  <circle cx="190" cy="508" r="34" fill="#D6FF63" fill-opacity="0.86"/>
  <circle cx="770" cy="508" r="34" fill="#D6FF63" fill-opacity="0.86"/>
  <circle cx="140" cy="508" r="20" fill="white" fill-opacity="0.18"/>
  <circle cx="820" cy="508" r="20" fill="white" fill-opacity="0.18"/>
  <path d="M334 672L482 566L628 672" stroke="white" stroke-opacity="0.14" stroke-width="2"/>
  <rect x="368" y="608" width="224" height="44" rx="18" fill="white" fill-opacity="0.08"/>
</svg>
